Coordinates
version=1
nRows=21
nColumns=24
inDegrees=yes

Units are S.I. units (second, meters, Newtons, ...)
Angles are in degrees.

endheader
time	pelvis_tilt	pelvis_list	pelvis_rotation	pelvis_tx	pelvis_ty	pelvis_tz	hip_flexion_r	hip_adduction_r	hip_rotation_r	knee_angle_r	ankle_angle_r	subtalar_angle_r	mtp_angle_r	hip_flexion_l	hip_adduction_l	hip_rotation_l	knee_angle_l	ankle_angle_l	subtalar_angle_l	mtp_angle_l	lumbar_extension	lumbar_bending	lumbar_rotation
39.99800000	4.84455933	-1.84559258	-0.77772078	0.60102028	1.04559875	-0.02160049	5.86469737	-2.90617367	-6.95037445	-22.36942186	15.96778676	-0.00000082	0.00000000	34.83919049	1.38076320	0.20135362	-43.62164702	7.53409973	0.00000249	0.00000000	-19.54310531	-0.47001089	-4.72635202
40.00000000	4.84455933	-1.84559258	-0.77772078	0.60102028	1.04559875	-0.02160049	5.42899388	-2.90617367	-6.95037445	-22.09579806	15.99165934	-0.00000082	0.00000000	34.85104102	1.38076320	0.20135362	-42.71760370	7.42511125	0.00000249	0.00000000	-19.54310531	-0.47001089	-4.72635202
40.00200000	4.84455933	-1.84559258	-0.77772078	0.60102028	1.04559875	-0.02160049	4.99056387	-2.90617367	-6.95037445	-21.82152102	16.00995350	-0.00000082	0.00000000	34.85421962	1.38076320	0.20135362	-41.80480264	7.30370220	0.00000249	0.00000000	-19.54310531	-0.47001089	-4.72635202
40.00400000	4.84455933	-1.84559258	-0.77772078	0.60102028	1.04559875	-0.02160049	4.54913565	-2.90617367	-6.95037445	-21.54696575	16.02250616	-0.00000082	0.00000000	34.84856600	1.38076320	0.20135362	-40.88436357	7.17005773	0.00000249	0.00000000	-19.54310531	-0.47001089	-4.72635202
40.00600000	4.84455933	-1.84559258	-0.77772078	0.60102028	1.04559875	-0.02160049	4.10594091	-2.90617367	-6.95037445	-21.27178993	16.02930797	-0.00000082	0.00000000	34.83401384	1.38076320	0.20135362	-39.95744264	7.02445691	0.00000249	0.00000000	-19.54310531	-0.47001089	-4.72635202
40.00800000	4.84455933	-1.84559258	-0.77772078	0.60102028	1.04559875	-0.02160049	3.66052479	-2.90617367	-6.95037445	-20.99655059	16.03021571	-0.00000082	0.00000000	34.81124387	1.38076320	0.20135362	-39.02488911	6.86727773	0.00000249	0.00000000	-19.54310531	-0.47001089	-4.72635202
40.01000000	4.84455933	-1.84559258	-0.77772078	0.60102028	1.04559875	-0.02160049	3.21342994	-2.90617367	-6.95037445	-20.72135756	16.02524828	-0.00000082	0.00000000	34.78085529	1.38076320	0.20135362	-38.08767082	6.69897735	0.00000249	0.00000000	-19.54310531	-0.47001089	-4.72635202
40.01200000	4.84455933	-1.84559258	-0.77772078	0.60102028	1.04559875	-0.02160049	2.76502093	-2.90617367	-6.95037445	-20.44646574	16.01441349	-0.00000082	0.00000000	34.74314149	1.38076320	0.20135362	-37.14699230	6.52004885	0.00000249	0.00000000	-19.54310531	-0.47001089	-4.72635202
40.01400000	4.84455933	-1.84559258	-0.77772078	0.60102028	1.04559875	-0.02160049	2.31576518	-2.90617367	-6.95037445	-20.17214040	15.99775052	-0.00000082	0.00000000	34.69856383	1.38076320	0.20135362	-36.20404164	6.33105432	0.00000249	0.00000000	-19.54310531	-0.47001089	-4.72635202
40.01600000	4.84455933	-1.84559258	-0.77772078	0.60102028	1.04559875	-0.02160049	1.86605277	-2.90617367	-6.95037445	-19.89875430	15.97535531	-0.00000082	0.00000000	34.64767371	1.38076320	0.20135362	-35.26002625	6.13263875	0.00000249	0.00000000	-19.54310531	-0.47001089	-4.72635202
40.01800000	4.84455933	-1.84559258	-0.77772078	0.60102028	1.04559875	-0.02160049	1.41580118	-2.90617367	-6.95037445	-19.62699023	15.94729965	-0.00000082	0.00000000	34.59175890	1.38076320	0.20135362	-34.31581992	5.92549607	0.00000249	0.00000000	-19.54310531	-0.47001089	-4.72635202
40.02000000	4.84455933	-1.84559258	-0.77772078	0.60102028	1.04559875	-0.02160049	0.96604986	-2.90617367	-6.95037445	-19.35702858	15.91381982	-0.00000082	0.00000000	34.53031778	1.38076320	0.20135362	-33.37329984	5.71038860	0.00000249	0.00000000	-19.54310531	-0.47001089	-4.72635202
40.02200000	4.84455933	-1.84559258	-0.77772078	0.60102028	1.04559875	-0.02160049	0.51709922	-2.90617367	-6.95037445	-19.08949992	15.87511682	-0.00000082	0.00000000	34.46411828	1.38076320	0.20135362	-32.43371226	5.48813897	0.00000249	0.00000000	-19.54310531	-0.47001089	-4.72635202
40.02400000	4.84455933	-1.84559258	-0.77772078	0.60102028	1.04559875	-0.02160049	0.06930700	-2.90617367	-6.95037445	-18.82507669	15.83142405	-0.00000082	0.00000000	34.39397016	1.38076320	0.20135362	-31.49831572	5.25960049	0.00000249	0.00000000	-19.54310531	-0.47001089	-4.72635202
40.02600000	4.84455933	-1.84559258	-0.77772078	0.60102028	1.04559875	-0.02160049	-0.37675642	-2.90617367	-6.95037445	-18.56439057	15.78300415	-0.00000082	0.00000000	34.32054741	1.38076320	0.20135362	-30.56847146	5.02565707	0.00000249	0.00000000	-19.54310531	-0.47001089	-4.72635202
40.02800000	4.84455933	-1.84559258	-0.77772078	0.60102028	1.04559875	-0.02160049	-0.82091308	-2.90617367	-6.95037445	-18.30834009	15.73017490	-0.00000082	0.00000000	34.24496403	1.38076320	0.20135362	-29.64534322	4.78731901	0.00000249	0.00000000	-19.54310531	-0.47001089	-4.72635202
40.03000000	4.84455933	-1.84559258	-0.77772078	0.60102028	1.04559875	-0.02160049	-1.26209450	-2.90617367	-6.95037445	-18.05742999	15.67328335	-0.00000082	0.00000000	34.16690675	1.38076320	0.20135362	-28.73084570	4.54548850	0.00000249	0.00000000	-19.54310531	-0.47001089	-4.72635202
40.03200000	4.84455933	-1.84559258	-0.77772078	0.60102028	1.04559875	-0.02160049	-1.70032825	-2.90617367	-6.95037445	-17.81278183	15.61267052	-0.00000082	0.00000000	34.08786944	1.38076320	0.20135362	-27.82596822	4.30124038	0.00000249	0.00000000	-19.54310531	-0.47001089	-4.72635202
40.03400000	4.84455933	-1.84559258	-0.77772078	0.60102028	1.04559875	-0.02160049	-2.13487133	-2.90617367	-6.95037445	-17.57517552	15.54872148	-0.00000082	0.00000000	34.00836903	1.38076320	0.20135362	-26.93220832	4.05560662	0.00000249	0.00000000	-19.54310531	-0.47001089	-4.72635202
40.03600000	4.84455933	-1.84559258	-0.77772078	0.60102028	1.04559875	-0.02160049	-2.56511943	-2.90617367	-6.95037445	-17.34550731	15.48183585	-0.00000082	0.00000000	33.92908507	1.38076320	0.20135362	-26.05097326	3.80967055	0.00000249	0.00000000	-19.54310531	-0.47001089	-4.72635202
40.03800000	4.84455933	-1.84559258	-0.77772078	0.60102028	1.04559875	-0.02160049	-2.99114698	-2.90617367	-6.95037445	-17.12505842	15.41239928	-0.00000082	0.00000000	33.85141111	1.38076320	0.20135362	-25.18328080	3.56459018	0.00000249	0.00000000	-19.54310531	-0.47001089	-4.72635202
